<?xml version="1.0" encoding="utf-8"?>
<!-- Generator: Adobe Illustrator 23.1.0, SVG Export Plug-In . SVG Version: 6.00 Build 0)  -->
<svg version="1.1" id="Layer_1" xmlns="http://www.w3.org/2000/svg" xmlns:xlink="http://www.w3.org/1999/xlink" x="0px" y="0px"
	 viewBox="0 0 392.8 147.6" style="enable-background:new 0 0 392.8 147.6;" xml:space="preserve">
<style type="text/css">
	.st0{fill:#F8D13B;}
	.st1{opacity:0.4;fill:#F0B919;}
	.st2{fill:#FFFFFF;}
</style>
<g>
	<path class="st0" d="M375.4,44.7c-1.5-0.8-9.8-5.9-22.6-5.8c-3.3,0-6.6,0.6-9,1.1c-6.6,1.5-12.7,4.2-17.8,8.6
		c0.2,0,5.5,3.4,6.4,10.3c0.5,2.9-0.2,7.4-3.2,11.1l-16.9,23.1c0,0-9.9,18.7-31.5,22.1c-21.6,4-36.1-8.2-36.1-8.2l18.3,18.7
		c13.7,12.5,25.1,18.9,36.2,21c9,1.7,15.8,0.4,17.8,0c18.3-3.7,28.6-18,32.1-23.5c5.7-8.1,34.2-53.2,43.7-68.1
		C384.4,50.1,375.4,44.7,375.4,44.7z"/>
	<path class="st1" d="M375.4,44.7c-1.5-0.8-9.8-5.9-22.6-5.8c-3.3,0-6.6,0.6-9,1.1c-6.6,1.5-12.7,4.2-17.8,8.6
		c0.2,0,5.5,3.4,6.4,10.3c0.5,2.9-0.2,7.4-3.2,11.1l-0.1,0.1l0,0.1C338.2,59.1,352,52,367.5,52C376,52,384,54.2,391,58
		c0.7-1,1.3-2,1.8-2.8C384.4,50.1,375.4,44.7,375.4,44.7z"/>
	<path class="st0" d="M249.5,102.9c1.5,0.8,9.8,5.9,22.6,5.8c3.3,0,6.6-0.6,9-1.1c6.6-1.5,12.7-4.2,17.8-8.6
		c-0.2,0-5.5-3.4-6.4-10.3c-0.5-2.9,0.2-7.4,3.2-11.1l16.9-23.1c0,0,9.9-18.7,31.5-22.1c21.6-4,36.1,8.2,36.1,8.2l-18.3-18.7
		c-13.7-12.5-25.1-18.9-36.2-21c-9-1.7-15.8-0.4-17.8,0c-18.3,3.7-28.6,18-32.1,23.5c-5.7,8.1-34.2,53.2-43.7,68.1
		C240.5,97.5,249.5,102.9,249.5,102.9z"/>
	<path class="st1" d="M249.5,102.9c1.5,0.8,9.8,5.9,22.6,5.8c3.3,0,6.6-0.6,9-1.1c6.6-1.5,12.7-4.2,17.8-8.6
		c-0.2,0-5.5-3.4-6.4-10.3c-0.5-2.9,0.2-7.4,3.2-11.1l0.1-0.1l0-0.1c-9.1,11.1-22.9,18.2-38.4,18.2c-8.5,0-16.5-2.2-23.5-5.9
		c-0.7,1-1.3,2-1.8,2.8C240.5,97.5,249.5,102.9,249.5,102.9z"/>
	<g>
		<g>
			<g id="XMLID_59_">
				<path id="XMLID_60_" class="st2" d="M173.2,108.8h-16V94.1h16c3.7,0,6.7-3,6.7-6.7V58.6h14.8v28.8
					C194.6,99.2,185,108.8,173.2,108.8z"/>
			</g>
			<g id="XMLID_57_">
				<rect id="XMLID_58_" x="157.2" y="38.8" class="st2" width="14.8" height="50.2"/>
			</g>
			<g id="XMLID_55_">
				<path id="XMLID_56_" class="st2" d="M51.6,58.6V83c0,14.2-11.6,25.8-25.8,25.8S0,97.3,0,83V58.6h14.8V83c0,6.1,5,11.1,11.1,11.1
					s11.1-5,11.1-11.1V58.6H51.6z"/>
			</g>
			<path class="st2" d="M89.4,58.6v9c0,3.4-2.4,6.6-5.8,6.6c-3.4,0-5.8-3.2-5.8-6.6v-9H63.1v9c0,11.5,9.1,20.9,20.5,21.4
				c11.4-0.5,20.5-9.9,20.5-21.4v-9H89.4z"/>
			<path class="st2" d="M110,89c-11.4-0.5-20.5-9.9-20.5-21.4v-9h14.8v9c0,3.4,2.4,6.6,5.8,6.6h39.4V89H110z"/>
			<path class="st2" d="M63.1,58.6v9c0,3.4-2.4,6.6-5.8,6.6c-3.3,0-5.8-3.2-5.8-6.6v-9H36.8v9c0,11.5,9.1,20.9,20.5,21.4
				c11.4-0.5,20.5-9.9,20.5-21.4v-9H63.1z"/>
			<rect x="54.9" y="94" class="st2" width="29.6" height="14.8"/>
			<rect x="68.8" y="38.8" class="st2" width="29.6" height="14.8"/>
			<rect x="18" y="38.8" class="st2" width="15.7" height="14.8"/>
		</g>
	</g>
</g>
</svg>
